Spartacus Blood and Sand Season 1
 
http://www.imdb.com/title/tt1442449/

Subs :

N/A

Source  :

Spartacus.Blood.and.Sand.720p.HDTV.X264-DIMENSION Episode 1 to 13



Info :

ID                               : 1
Format                           : AVC
Format/Info                      : Advanced Video Codec
Format profile                   : Baseline@L2.1
Format settings, CABAC           : No
Format settings, ReFrames        : 3 frames
Format settings, GOP             : N=1
Codec ID                         : avc1
Codec ID/Info                    : Advanced Video Coding
Duration                         : 54mn 15s
Bit rate mode                    : Variable
Bit rate                         : 400 Kbps
Width                            : 480 pixels
Height                           : 272 pixels
Display aspect ratio             : 16:9
Frame rate mode                  : Variable
Frame rate                       : 23.976 fps
Minimum frame rate               : 23.810 fps
Maximum frame rate               : 24.390 fps
Color space                      : YUV
Chroma subsampling               : 4:2:0
Bit depth                        : 8 bits
Scan type                        : Progressive
Bits/(Pixel*Frame)               : 0.128
Stream size                      : 155 MiB (75%)
Writing library                  : x264 core 79

ID                               : 2
Format                           : AAC
Format/Info                      : Advanced Audio Codec
Format version                   : Version 4
Format profile                   : LC
Format settings, SBR             : No
Codec ID                         : 40
Duration                         : 54mn 15s
Bit rate mode                    : Variable
Bit rate                         : 128 Kbps
Maximum bit rate                 : 186 Kbps
Channel(s)                       : 2 channels
Channel positions                : Front: L R
Sampling rate                    : 48.0 KHz
Stream size                      : 49.7 MiB (24%)


Screens:
 
http://img34.imageshack.us/img34/6713/spartacusbloodandsands0h.jpg



PLEASE LET THE TORRENT SEED AND SPREAD THE WORD ABOUT IT! 

Let me know what I can do to be your trusted source of Handheld videos.
 
http://thepiratebay.org/user/on.off.on/ -OOO